<svg width="77" height="69" viewBox="0 0 77 69" fill="none" xmlns="http://www.w3.org/2000/svg">
<path fill-rule="evenodd" clip-rule="evenodd" d="M14.3397 2.30699L0.748503 30.899C0.696785 31.0053 0.680396 31.1254 0.701732 31.2418C0.723069 31.3581 0.781013 31.4646 0.867089 31.5456L37.5737 66.7731C37.678 66.8732 37.8168 66.9292 37.9613 66.9292C38.1058 66.9292 38.2446 66.8732 38.3489 66.7731L75.0555 31.5478C75.1416 31.4668 75.1995 31.3603 75.2208 31.244C75.2422 31.1276 75.2258 31.0075 75.1741 30.9012L61.5829 2.30919C61.539 2.21317 61.4685 2.13182 61.3797 2.07488C61.2909 2.01793 61.1876 1.9878 61.0822 1.98808H14.8448C14.7389 1.98676 14.6348 2.01617 14.5452 2.07275C14.4556 2.12934 14.3842 2.21069 14.3397 2.30699Z" fill="#50AF95"/>
<path fill-rule="evenodd" clip-rule="evenodd" d="M42.6771 33.8385C42.4136 33.8583 41.052 33.9397 38.0149 33.9397C35.5993 33.9397 33.8842 33.8671 33.2825 33.8385C23.9472 33.4273 16.9792 31.7997 16.9792 29.8511C16.9792 27.9024 23.9472 26.2771 33.2825 25.8592V32.2176C33.893 32.2616 35.641 32.365 38.0567 32.365C40.9554 32.365 42.407 32.244 42.6683 32.2198V25.8636C51.9839 26.2793 58.9365 27.9068 58.9365 29.8511C58.9365 31.7953 51.986 33.4229 42.6683 33.8363L42.6771 33.8385ZM42.6771 25.206V19.5162H55.6776V10.8396H20.282V19.5162H33.2803V25.2038C22.7152 25.6898 14.77 27.7858 14.77 30.2975C14.77 32.8092 22.7152 34.903 33.2803 35.3913V53.6242H42.6749V35.3847C53.2158 34.8986 61.1479 32.8048 61.1479 30.2953C61.1479 27.7858 53.2224 25.692 42.6749 25.2038L42.6771 25.206Z" fill="white"/>
</svg>
